# xmcd
#
# Track frame offsets:
#	150
#	13386
#	27183
#	37546
#	48808
#	58154
#	67654
#	79794
#	91755
#	105602
#
# Disc length: 1532 seconds
#
# Revision: 0
# Processed by: cddbd v1.5.1PL0 Copyright (c) Steve Scherf et al.
# Submitted via: dBpowerAMP V4.0
#
DISCID=6a05fa0a
DTITLE=Merle Haggard - A Working Man Can't Get Nowhere Today
DYEAR=1977
DGENRE=Country
TTITLE0=A Working Man Can't Get Nowhere Today
TTITLE1=Making Believe
TTITLE2=Blues Stay Away From Me
TTITLE3=Got A Letter From My Kid Today
TTITLE4=When My Last Song Is Sung
TTITLE5=Moanin' The Blues
TTITLE6=Goodbye Lefty
TTITLE7=Blues For Dixie
TTITLE8=Running Kind
TTITLE9=I'm A White Boy
EXTD=by Sound_Man73
EXTT0=
EXTT1=
EXTT2=
EXTT3=
EXTT4=
EXTT5=
EXTT6=
EXTT7=
EXTT8=
EXTT9=
PLAYORDER=
